# xmcd
#
# Track frame offsets:
#	150
#	21677
#	45262
#	68140
#	90147
#	113402
#	139625
#	162312
#	183327
#	206922
#
# Disc length: 3023 seconds
#
# Revision: 1
# Processed by: cddbd v1.5.1PL0 Copyright (c) Steve Scherf et al.
# Submitted via: audiograbber 1.83.01
#
DISCID=7d0bcd0a
DTITLE=Elvis Phuong - Dan Ba
DYEAR=1900
DGENRE=
TTITLE0=Dan ba
TTITLE1=Em ve voi chong
TTITLE2=Nguoi tinh tram nam
TTITLE3=Giot buon
TTITLE4=Nhu giac chiem bao
TTITLE5=Lam
TTITLE6=Tuyet tinh
TTITLE7=Tinh yeu den trong gia tu
TTITLE8=Tra lai thoang may bay
TTITLE9=Cho anh xin so nha
EXTD=
EXTT0=
EXTT1=
EXTT2=
EXTT3=
EXTT4=
EXTT5=
EXTT6=
EXTT7=
EXTT8=
EXTT9=
PLAYORDER=
